<?xml version="1.0" encoding="UTF-8"?>
<svg width="457px" height="32px" viewBox="0 0 457 32" version="1.1" xmlns="http://www.w3.org/2000/svg" xmlns:xlink="http://www.w3.org/1999/xlink">
    <title>logo-njys</title>
    <defs>
        <polygon id="path-1" points="0 0 19.1028404 0 19.1028404 25.3130044 0 25.3130044"></polygon>
    </defs>
    <g id="Symbols" stroke="none" stroke-width="1" fill="none" fill-rule="evenodd">
        <g id="logo-njys">
            <polygon id="Fill-1" fill="#0070B9" points="17.2951619 0.434107087 17.3286202 21.0990165 2.80956926 0.434107087 -4.54957342e-13 0.434107087 -4.54957342e-13 25.1781181 2.67573599 25.1781181 2.60974875 4.34692337 17.2951619 25.1781181 19.9718273 25.1781181 19.9718273 0.434107087"></polygon>
            <g id="Group-45" transform="translate(23.486809, 0.000000)">
                <path d="M16.426175,14.9129208 C16.257954,11.7692906 13.2141765,8.69347516 9.50123272,8.79380378 C5.62006791,8.79380378 2.74265262,11.6364481 2.5084444,14.9129208 L16.426175,14.9129208 Z M2.47498608,16.8860504 C2.60974875,21.3999094 6.45559645,23.5736963 9.50123272,23.5402534 C12.2773437,23.5402534 14.5190509,22.1700245 15.690092,19.8280943 L18.2654531,19.8280943 C17.4289951,21.767781 16.1585085,23.2392675 14.6194259,24.2091109 C13.114731,25.1789542 11.3405108,25.6805973 9.50123272,25.6805973 C3.24452738,25.6805973 0,20.698538 0,16.2171929 C0,10.9341477 4.08098532,6.68783167 9.46777441,6.68783167 C12.0096771,6.68783167 14.3517593,7.58986031 16.0581335,9.22856114 C18.1316198,11.2351336 19.1353693,14.0099632 18.8677028,16.8860504 L2.47498608,16.8860504 Z" id="Fill-2" fill="#0070B9"></path>
                <polygon id="Fill-4" fill="#0070B9" points="19.8405963 7.1891032 22.450345 7.1891032 27.4012466 22.0015096 31.7164402 8.79436116 33.7573975 8.79436116 38.1060494 22.0015096 43.0234926 7.1891032 45.599783 7.1891032 39.3774654 25.1785826 36.9359377 25.1785826 32.6867314 12.0708339 28.5044417 25.1785826 26.0954428 25.1785826"></polygon>
                <path d="M69.6250854,17.1873149 C69.6250854,18.9923012 69.5247105,20.5316024 68.9559191,21.8683884 C68.520961,22.771346 67.8183363,23.6733746 66.9149617,24.3097182 C65.6110168,25.2126758 64.0375464,25.6130613 62.6332265,25.6130613 C60.7595607,25.6130613 56.8783959,24.6432179 55.9415631,20.5641163 C55.8421175,20.1962446 55.7752009,19.7958591 55.7417425,19.3936157 L58.7195328,19.3936157 C58.7195328,19.561759 58.7529911,19.6946015 58.78552,19.8952588 C59.521603,22.5372458 61.6285476,23.1717315 62.7670598,23.1717315 C64.8070877,23.1392176 66.0115872,22.0021599 66.413087,20.8651021 C66.7811285,19.8952588 66.8480451,18.8919725 66.8480451,17.721472 L66.8480451,0.434292881 L69.6250854,0.434292881 L69.6250854,17.1873149 Z" id="Fill-6" fill="#0070B9"></path>
                <path d="M89.298576,14.9129208 C89.130355,11.7692906 86.0865776,8.69347516 82.3736337,8.79380378 C78.4924689,8.79380378 75.6150536,11.6364481 75.3808454,14.9129208 L89.298576,14.9129208 Z M75.3473871,16.8860504 C75.4821498,21.3999094 79.3279975,23.5736963 82.3736337,23.5402534 C85.1497447,23.5402534 87.3914519,22.1700245 88.562493,19.8280943 L91.1378541,19.8280943 C90.3013962,21.767781 89.0309095,23.2392675 87.4918269,24.2091109 C85.987132,25.1789542 84.2129118,25.6805973 82.3736337,25.6805973 C76.1169284,25.6805973 72.872401,20.698538 72.872401,16.2171929 C72.872401,10.9341477 76.9533863,6.68783167 82.3401754,6.68783167 C84.8820781,6.68783167 87.2241604,7.58986031 88.9305345,9.22856114 C91.0040208,11.2351336 92.0077703,14.0099632 91.7401038,16.8860504 L75.3473871,16.8860504 Z" id="Fill-8" fill="#0070B9"></path>
                <path d="M95.2552718,7.1891032 L97.597354,7.1891032 L97.597354,10.1311472 C98.9022284,7.45664619 101.243381,6.75341686 103.351255,6.68746008 L103.351255,9.1287899 L103.117047,9.1287899 C99.637382,9.1287899 97.697729,11.3016478 97.697729,15.3807494 L97.697729,25.1785826 L95.2552718,25.1785826 L95.2552718,7.1891032 Z" id="Fill-10" fill="#0070B9"></path>
                <path d="M114.124555,11.7033338 C114.124555,9.79709001 112.853138,8.72691803 111.046389,8.72691803 C109.072349,8.72691803 107.868779,10.064633 107.935695,11.6364481 C108.002612,13.3420347 109.306557,14.044335 111.481347,14.6788207 C114.057638,15.381121 116.934124,16.1168643 117.067957,19.9627948 C117.20272,23.2727104 114.526054,25.6805973 111.113306,25.6805973 C108.203362,25.6805973 104.991363,23.8412392 104.957905,20.0631234 L107.400362,20.0631234 C107.500737,22.5369671 109.340945,23.640582 111.146764,23.640582 C113.22118,23.640582 114.659888,22.1022098 114.626429,20.2637807 C114.559513,18.2237653 113.22118,17.3876935 110.110486,16.4847359 C107.534195,15.7155498 105.526696,14.6788207 105.45978,11.8371053 C105.45978,8.59314653 108.035141,6.68783167 111.080777,6.68783167 C113.589221,6.68783167 116.398791,8.05806055 116.567012,11.7033338 L114.124555,11.7033338 Z" id="Fill-12" fill="#0070B9"></path>
                <path d="M136.139663,14.9129208 C135.971442,11.7692906 132.927664,8.69347516 129.21472,8.79380378 C125.333556,8.79380378 122.45614,11.6364481 122.221932,14.9129208 L136.139663,14.9129208 Z M122.188474,16.8860504 C122.323236,21.3999094 126.170013,23.5736963 129.21472,23.5402534 C131.990831,23.5402534 134.232539,22.1700245 135.40358,19.8280943 L137.978941,19.8280943 C137.142483,21.767781 135.871996,23.2392675 134.332914,24.2091109 C132.828219,25.1789542 131.053998,25.6805973 129.21472,25.6805973 C122.958015,25.6805973 119.713488,20.698538 119.713488,16.2171929 C119.713488,10.9341477 123.794473,6.68783167 129.181262,6.68783167 C131.723165,6.68783167 134.065247,7.58986031 135.771621,9.22856114 C137.845107,11.2351336 138.848857,14.0099632 138.58119,16.8860504 L122.188474,16.8860504 Z" id="Fill-14" fill="#0070B9"></path>
                <polygon id="Fill-16" fill="#0070B9" points="146.344914 24.844061 139.386514 7.1890103 142.028791 7.1890103 147.682317 21.7338737 153.504065 7.1890103 156.213259 7.1890103 145.942485 31.9999071 143.266749 31.9999071"></polygon>
                <polygon id="Fill-18" fill="#0070B9" points="170.936777 16.4851075 162.974627 0.434385777 165.985876 0.434385777 172.342027 13.8096775 178.66379 0.434385777 181.675968 0.434385777 173.712888 16.4851075 173.712888 25.1783968 170.936777 25.1783968"></polygon>
                <path d="M182.412608,16.2174716 C182.412608,20.2975022 185.524232,23.3733177 189.504842,23.3733177 C193.51984,23.3733177 196.598006,20.2975022 196.598006,16.1840287 C196.598006,12.0705552 193.51984,8.99473971 189.504842,8.99473971 C185.524232,8.99473971 182.412608,12.0705552 182.412608,16.1840287 L182.412608,16.2174716 Z M179.971081,16.1505858 C179.971081,11.1341547 183.717483,6.68718139 189.504842,6.68718139 C195.32659,6.68718139 199.072992,11.1341547 199.072992,16.1840287 C199.072992,21.2329737 195.32659,25.6465042 189.504842,25.6465042 C183.717483,25.6465042 179.971081,21.2329737 179.971081,16.1840287 L179.971081,16.1505858 Z" id="Fill-20" fill="#0070B9"></path>
                <path d="M219.347988,25.1787684 L217.005906,25.1787684 L217.005906,21.9691815 C216.002157,24.3092537 213.560629,25.7138544 210.348631,25.6804115 C204.729492,25.5800829 202.754522,21.7675952 202.754522,17.3875077 L202.754522,7.18928899 L205.196979,7.18928899 L205.196979,16.9193075 C205.196979,20.7977519 206.936812,23.4062961 210.984339,23.3737822 C214.73167,23.3403393 216.873002,21.0987378 216.873002,17.3540648 L216.873002,7.18928899 L219.347988,7.18928899 L219.347988,25.1787684 Z" id="Fill-22" fill="#0070B9"></path>
                <polygon id="Fill-24" fill="#0070B9" points="225.573373 9.16130381 222.027721 9.16130381 222.027721 7.1891032 225.573373 7.1891032 225.573373 0.433642603 228.01583 0.433642603 228.01583 7.1891032 231.962982 7.1891032 231.962982 9.16130381 228.01583 9.16130381 228.01583 25.1785826 225.573373 25.1785826"></polygon>
                <path d="M234.674035,0.434107087 L237.149021,0.434107087 L237.149021,7.02142434 L237.149021,10.1306827 C238.254075,7.75716757 241.030186,6.62010985 243.572089,6.6869956 C246.416975,6.6869956 248.289712,7.5899532 249.52674,9.16176829 C250.764698,10.7335834 251.233114,12.9073702 251.233114,15.4815426 L251.233114,25.1790471 L248.791587,25.1790471 L248.791587,15.5818712 C248.791587,13.6431134 248.390087,12.0034836 247.486712,10.832983 C246.516421,9.66341141 245.111172,8.99455392 242.970769,8.99455392 C240.996728,8.99455392 239.524562,9.69685428 238.587729,10.7670263 C237.618367,11.8362693 237.149021,13.3077557 237.149021,14.9464566 L237.149021,25.1790471 L234.674035,25.1790471 L234.674035,0.434107087 Z" id="Fill-26" fill="#0070B9"></path>
                <path d="M267.261879,18.2904653 C267.663379,22.4039388 270.674627,23.2725246 272.21278,23.2725246 C274.789071,23.2725246 277.163682,21.299395 277.163682,18.5580083 C277.163682,15.0799494 274.186821,14.3116922 271.309406,13.3752918 C269.301907,12.77332 264.987643,11.5024908 264.987643,6.82048841 C264.919797,2.44040085 268.565824,0 272.347543,0 C275.424779,0 278.971361,1.70465762 279.371931,6.38666001 L276.629278,6.38666001 C276.328153,4.78140205 275.525154,2.34007223 272.246239,2.34007223 C269.770323,2.34007223 267.730295,4.01221594 267.730295,6.58638829 C267.696837,9.59717594 270.139294,10.3319902 273.885696,11.6028194 C276.226849,12.5048481 279.907264,13.8100491 279.907264,18.357351 C279.907264,22.4039388 276.863487,25.6135258 272.246239,25.6135258 C268.097407,25.6135258 264.65213,23.0049816 264.485768,18.2904653 L267.261879,18.2904653 Z" id="Fill-28" fill="#0070B9"></path>
                <polygon id="Fill-30" fill="#0070B9" points="288.373984 24.844061 281.415584 7.1890103 284.057861 7.1890103 289.711387 21.7338737 295.533135 7.1890103 298.242329 7.1890103 287.971555 31.9999071 285.295819 31.9999071"></polygon>
                <path d="M300.686645,7.1891032 L303.028727,7.1891032 L303.028727,10.0317475 C304.165381,7.75670309 306.674754,6.68746008 308.715712,6.68746008 C310.588448,6.68746008 312.362668,7.28850285 313.633155,8.72654644 C314.101571,9.19474668 314.703821,10.3986902 314.804196,10.5993474 C315.071863,10.0977043 315.439904,9.39540393 316.10907,8.69310357 C317.280112,7.45664619 319.053402,6.68746008 321.059972,6.68746008 C322.89925,6.68746008 324.67347,7.22254607 325.911428,8.49244632 C327.48304,10.0651904 327.951456,12.0039481 327.951456,15.1810212 L327.951456,25.1785826 L325.47647,25.1785826 L325.47647,15.2813498 C325.47647,13.375106 325.175345,11.6695194 324.137208,10.4990188 C323.401125,9.56354727 322.264471,8.99408944 320.558097,8.99408944 C318.985556,8.99408944 317.446474,9.62950405 316.610945,10.8668904 C315.707571,12.1377196 315.53935,13.1410058 315.53935,15.1810212 L315.53935,25.1785826 L313.064364,25.1785826 L313.064364,15.1810212 C313.13221,13.1735197 312.830155,12.0039481 312.12846,10.9003333 C311.291073,9.72983267 310.020586,9.02753231 308.180379,8.99408944 C306.507463,8.92720369 305.102213,9.76327554 304.36613,10.8334475 C303.597519,11.8701766 303.161631,13.2413345 303.161631,15.1466493 L303.161631,25.1785826 L300.686645,25.1785826 L300.686645,7.1891032 Z" id="Fill-32" fill="#0070B9"></path>
                <g id="Group-36" transform="translate(332.672517, 6.686996)">
                    <mask id="mask-2" fill="white">
                        <use xlink:href="#path-1"></use>
                    </mask>
                    <g id="Clip-35"></g>
                    <path d="M16.6269249,9.46340444 C16.6269249,6.08567414 14.2513844,2.27411545 9.40085777,2.27411545 C7.39335873,2.27411545 5.62006791,3.07674443 4.31612294,4.38008756 C3.07816519,5.68528862 2.3086239,7.49027486 2.3086239,9.53029019 C2.3086239,11.5359337 3.07816519,13.3427778 4.38211017,14.646121 C5.65352623,15.9169502 7.46120476,16.6861363 9.46777441,16.6861363 C13.5153014,16.6861363 16.6269249,13.6103208 16.6269249,9.49684731 L16.6269249,9.46340444 Z M0,0.502572082 L2.34208221,0.502572082 L2.34208221,4.24724503 C3.81424818,1.63870084 6.42306753,0 9.86927421,0 C15.9243003,0 19.1028404,4.91517354 19.1028404,9.56373306 C19.1028404,14.5792352 15.4558838,18.9936946 9.86927421,18.9936946 C5.88773445,18.9936946 3.31237342,16.6861363 2.47498608,14.8133353 L2.47498608,18.4920515 L2.47498608,25.3134689 L0,25.3134689 L0,0.502572082 Z" id="Fill-34" fill="#0070B9" mask="url(#mask-2)"></path>
                </g>
                <path d="M355.558285,0.434107087 L358.033271,0.434107087 L358.033271,7.02142434 L358.033271,10.1306827 C359.138325,7.75716757 361.914436,6.62010985 364.456339,6.6869956 C367.301225,6.6869956 369.173962,7.5899532 370.41099,9.16176829 C371.648948,10.7335834 372.117364,12.9073702 372.117364,15.4815426 L372.117364,25.1790471 L369.675836,25.1790471 L369.675836,15.5818712 C369.675836,13.6431134 369.274337,12.0034836 368.370962,10.832983 C367.400671,9.66341141 365.995422,8.99455392 363.855019,8.99455392 C361.880978,8.99455392 360.408812,9.69685428 359.471979,10.7670263 C358.501688,11.8362693 358.033271,13.3077557 358.033271,14.9464566 L358.033271,25.1790471 L355.558285,25.1790471 L355.558285,0.434107087 Z" id="Fill-37" fill="#0070B9"></path>
                <path d="M378.20873,16.2174716 C378.20873,20.2975022 381.320353,23.3733177 385.300964,23.3733177 C389.315962,23.3733177 392.394127,20.2975022 392.394127,16.1840287 C392.394127,12.0705552 389.315962,8.99473971 385.300964,8.99473971 C381.320353,8.99473971 378.20873,12.0705552 378.20873,16.1840287 L378.20873,16.2174716 Z M375.767202,16.1505858 C375.767202,11.1341547 379.513604,6.68718139 385.300964,6.68718139 C391.122711,6.68718139 394.869113,11.1341547 394.869113,16.1840287 C394.869113,21.2329737 391.122711,25.6465042 385.300964,25.6465042 C379.513604,25.6465042 375.767202,21.2329737 375.767202,16.1840287 L375.767202,16.1505858 Z" id="Fill-39" fill="#0070B9"></path>
                <path d="M398.584752,7.1891032 L400.926834,7.1891032 C400.926834,8.19146045 400.926834,9.19474668 400.892447,10.3986902 C401.930584,8.05861793 404.373041,6.62057433 407.58411,6.68746008 C413.17072,6.75341686 415.143831,10.5659045 415.143831,14.946921 L415.143831,25.1785826 L412.702303,25.1785826 L412.702303,15.4485642 C412.702303,11.5691908 410.962471,8.92720369 406.914944,8.99408944 C403.20107,9.02753231 401.059738,11.2682049 401.059738,15.0138068 L401.059738,25.1785826 L398.584752,25.1785826 L398.584752,7.1891032 Z" id="Fill-41" fill="#0070B9"></path>
                <polygon id="Fill-43" fill="#0070B9" points="423.644846 24.844061 416.686445 7.1890103 419.328723 7.1890103 424.982249 21.7338737 430.803996 7.1890103 433.513191 7.1890103 423.242417 31.9999071 420.566681 31.9999071"></polygon>
            </g>
        </g>
    </g>
</svg>